<?xml version="1.0" encoding="utf-8"?>
<!-- Generator: Adobe Illustrator 19.2.0, SVG Export Plug-In . SVG Version: 6.00 Build 0)  -->
<svg version="1.1" id="Layer_1" xmlns="http://www.w3.org/2000/svg" xmlns:xlink="http://www.w3.org/1999/xlink" x="0px" y="0px"
	 viewBox="0 0 994 268.1" style="enable-background:new 0 0 994 268.1;" xml:space="preserve">
<style type="text/css">
	.st0{fill:#231F20;}
</style>
<g>
	<g>
		<g>
			<path class="st0" d="M79.1,0.3l-68.4,0l0,15.3h13.1v92.3H9l-0.1,15.3h44l0.1-15.3H39.2V76.4h42.5c6.7,0,13.8-3.4,19.6-9.3
				c7.7-7.8,12-18.8,11.8-30.1C112.6,2.7,79.4,0.4,79.1,0.3z M97.7,39.1c-0.3,20.9-18,22.1-19,22.1H39.6l-0.1-45.3
				c6,0,37.1,0,39.5,0c0.1,0,7.3,0.1,12.8,5.6C95.8,25.6,97.8,31.5,97.7,39.1z"/>
			<path class="st0" d="M242.9,107.9c-4.1,0.2-11.2-0.1-13.1-2c-0.2-0.2-5.4-5.8-12.5-19.1c-3.2-6-5.7-10.1-7.2-12.2
				c16.4-2.8,27.4-18.1,27.1-37.7c-0.5-34.4-33.7-36.7-34.1-36.7h-68.9l0,15.4h13.8v92.3h-13.8l0,15.1h42.5l0-15.1l-13.3,0V76.3
				c3.6,0,16.6-0.1,28.2,0c2.7,0,7.5,8.9,12.1,17.6c4.1,7.7,8.8,16.3,13.9,22.9c4.4,5.7,10.5,6.5,16.5,6.6c0.1,0,0.4,0,0.7,0
				c2.3,0,8.3,0,8.3,0l1,0l0-15.5L242.9,107.9z M221.7,39c-0.3,21-18.3,22.1-19,22.1h-39.1l-0.1-45.4c6,0,37.1,0.1,39.5,0.1
				c0.1,0,7.3,0.1,12.8,5.6C219.8,25.5,221.8,31.4,221.7,39z"/>
			<path class="st0" d="M380,107.9l-41.6-107l-0.3-0.8h-38.4l-0.1,15.7h14.3L277.5,108l-13,0l0,15.1l41.9,0V108l-12,0l7.5-18.9
				l54.2-0.1l7.4,19l-11.9,0l0,15.3l41.7,0l0-15.3L380,107.9z M350.1,74.1L307.4,74l21.2-55.7L350.1,74.1z"/>
			<polygon class="st0" points="413.1,15.6 426,15.5 426.1,107.8 413,107.8 413,123.1 508.7,123.1 508.7,94.5 493.5,94.5 
				493.5,107.9 441.5,108 441.5,69.3 488.4,69.4 488.4,53.9 441.4,53.9 441.4,15.5 493.6,15.5 493.7,29 508.7,28.9 508.7,0.2 
				413,0.2 			"/>
			<path class="st0" d="M634.4,108c-10.4,0-13.4-3.9-13.5-4.1L585.6,62c3.9-4.5,27.1-31.6,33-39.5c6-8,13.1-7,13.4-7l6.5,0l0-15.4
				h-10.7c-10.3,0-16.1,6.9-16.3,7.2l-39.9,46.9l-2.7,0l-4.3,0V15.5h13.4l0-15h-41.9v15.1l12.8,0L549,108h-12.8l0.1,15.1h42l0-15.1
				h-13.6V69.7h7.5c3.8,4.6,37.7,45.9,42.6,49.6c4.9,3.8,11.9,3.9,12.8,3.9c0.1,0,0.1,0,0.1,0h11l0-15.3l-1,0
				C637.8,108,635.3,108,634.4,108z"/>
			<polygon class="st0" points="863.8,107.8 811.9,107.7 812,15.4 825.5,15.4 825.5,0.1 783.5,0.1 783.5,15.4 796.4,15.4 
				796.4,107.7 783.6,107.7 783.7,123 879.2,123 879.2,94.2 863.9,94.1 			"/>
			<polygon class="st0" points="983.8,28.9 983.8,0 874.2,0.1 874.1,28.7 889.6,28.7 889.6,15.5 921.3,15.4 921.3,107.8 
				907.9,107.8 907.9,122.9 950,122.9 950,107.8 936.8,107.8 936.8,15.4 968.4,15.5 968.4,28.8 			"/>
			<polygon class="st0" points="660.7,15.5 673.6,15.5 673.7,107.8 660.6,107.8 660.6,123 756.3,123 756.3,94.5 741.1,94.5 
				741.1,107.8 689.1,107.9 689.1,69.3 736,69.3 736,53.9 689,53.9 689,15.4 741.2,15.4 741.3,28.9 756.3,28.9 756.3,0.1 660.6,0.1 
							"/>
		</g>
		<g>
			<path class="st0" d="M72.1,143.4c-17.3,0-33.2,6.7-44.6,18.7c-11,11.6-17.1,27.1-17.1,43.6v0.3c0,16.5,6,31.9,16.9,43.5
				c11.3,12,27.1,18.6,44.4,18.6c17.3,0,33.2-6.7,44.6-18.7c11-11.6,17.1-27.1,17.1-43.6v-0.3c0-16.5-6-31.9-16.9-43.5
				C105.2,150,89.4,143.4,72.1,143.4z M116.7,205.8v0.3c0,26.7-19.2,46.8-44.6,46.8c-12.5,0-23.9-4.9-32.2-13.8
				c-8.2-8.8-12.7-20.6-12.7-33.3v-0.3c0-26.7,19.2-46.8,44.6-46.8c12.5,0,23.9,4.9,32.2,13.8C112.2,181.2,116.7,193,116.7,205.8z"
				/>
			<path class="st0" d="M247.3,252.4c-4.1,0.2-11.2-0.1-13.1-2c-0.2-0.2-5.4-5.8-12.5-19.1c-3.2-6-5.7-10.1-7.2-12.2
				c16.4-2.8,27.4-18.1,27.1-37.7c-0.5-34.4-33.7-36.7-34.1-36.7h-68.9l0,15.4h13.8v92.3h-13.8l0,15.1h42.5l0-15.1l-13.3,0v-31.6
				c3.6,0,16.6-0.1,28.2,0c2.7,0,7.5,8.9,12.1,17.6c4.1,7.7,8.8,16.3,13.9,22.9c4.4,5.7,10.5,6.5,16.5,6.6c0.1,0,0.4,0,0.7,0
				c2.3,0,8.3,0,8.3,0l1,0l0-15.5L247.3,252.4z M207.1,205.6h-39.1l-0.1-45.4c6,0,37.1,0.1,39.5,0.1c0.1,0,7.3,0.1,12.8,5.6
				c4,4.1,6,10,5.9,17.6C225.9,204.5,207.9,205.5,207.1,205.6z"/>
			<path class="st0" d="M327.3,205.7v14.9h22.2v21.6c-8.8,6.9-20.9,11-32.5,11c-27,0-45.1-19.1-45.1-47.5v-0.3
				c0-26.2,19-46.8,43.3-46.8c17.3,0,26.9,6.2,34.7,12.9v14.9h15v-22.5h-0.1l0.1-0.1c0,0-1-1.4-3.2-3.5l0,0l-0.5-0.4
				c-2.2-2-5.3-4.5-9.6-7.1c-7.7-4.8-15.6-7.6-24.9-8.7c0,0,0,0-0.1,0c-0.4,0-0.7-0.1-1.1-0.1c-5-0.6-8.4-0.5-8.4-0.5l0.1,0.1
				c-0.5,0-1,0-1.5,0c-17.1,0-32.6,6.7-43.8,18.8c-10.7,11.6-16.7,27.1-16.7,43.5v0.3c0,17.1,5.8,32.7,16.5,43.9
				c11.2,11.9,26.7,18.1,44.9,18.1c24.1,0,40.6-11.5,48.2-18.4l0.5-0.4v-43.6H327.3z"/>
		</g>
	</g>
	<circle class="st0" cx="8.8" cy="154" r="8.8"/>
</g>
</svg>
