<?xml version="1.0" encoding="utf-8"?>
<!-- Generator: Adobe Illustrator 19.2.0, SVG Export Plug-In . SVG Version: 6.00 Build 0)  -->
<svg version="1.1" id="Layer_1" xmlns="http://www.w3.org/2000/svg" xmlns:xlink="http://www.w3.org/1999/xlink" x="0px" y="0px"
	 viewBox="0 0 1063.3 95.6" style="enable-background:new 0 0 1063.3 95.6;" xml:space="preserve">
<style type="text/css">
	.st0{fill:#FFFFFF;}
</style>
<g>
	<g>
		<g>
			<path class="st0" d="M53.3,0L0,0l0,11.9h10.2v71.9H-1.3l-0.1,11.9h34.3l0.1-12H22.2V59.3h33.1c5.2,0,10.8-2.6,15.3-7.2
				c6-6.1,9.4-14.6,9.2-23.5C79.4,1.8,53.5,0,53.3,0z M67.8,30.2c-0.2,16.3-14,17.2-14.8,17.2H22.5l-0.1-35.3c4.6,0,28.9,0,30.8,0
				c0.1,0,5.7,0.1,10,4.4C66.3,19.6,67.8,24.3,67.8,30.2z"/>
			<path class="st0" d="M180.9,83.8c-3.2,0.2-8.8-0.1-10.2-1.6c-0.1-0.1-4.2-4.5-9.7-14.8c-2.5-4.7-4.4-7.9-5.6-9.5
				c12.8-2.2,21.4-14.1,21.1-29.4C176,1.7,150.2,0,149.9-0.1H96.2l0,12h10.7v71.9H96.1l0,11.8h33.1l0-11.8l-10.4,0V59.2
				c2.8,0,12.9-0.1,22,0c2.1,0,5.8,7,9.4,13.7c3.2,6,6.9,12.7,10.8,17.9c3.4,4.4,8.2,5.1,12.8,5.1c0.1,0,0.3,0,0.6,0
				c1.8,0,6.5,0,6.5,0l0.8,0l0-12.1L180.9,83.8z M164.4,30.1c-0.2,16.4-14.2,17.2-14.8,17.2h-30.4L119.1,12c4.6,0,28.9,0.1,30.8,0.1
				c0.1,0,5.7,0.1,10,4.4C162.9,19.6,164.5,24.2,164.4,30.1z"/>
			<path class="st0" d="M287.8,83.8L255.3,0.4l-0.2-0.6h-29.9L225.1,12h11.1l-28.3,71.8l-10.1,0l0,11.8l32.7,0V83.9l-9.3,0l5.9-14.8
				l42.3-0.1l5.8,14.8l-9.3,0l0,11.9l32.5,0l0-11.9L287.8,83.8z M264.5,57.5l-33.3,0L247.8,14L264.5,57.5z"/>
			<polygon class="st0" points="313.6,11.9 323.7,11.9 323.7,83.8 313.5,83.8 313.5,95.7 388.1,95.7 388.1,73.4 376.3,73.4 
				376.3,83.8 335.7,83.9 335.7,53.8 372.3,53.8 372.3,41.8 335.7,41.8 335.7,11.8 376.3,11.8 376.4,22.3 388.1,22.3 388.1,-0.1 
				313.5,-0.1 			"/>
			<path class="st0" d="M486.1,83.9c-8.1,0-10.5-3.1-10.5-3.2L448,48.1c3-3.5,21.1-24.7,25.7-30.8c4.7-6.2,10.2-5.5,10.5-5.4l5.1,0
				l0-12H481c-8.1,0-12.5,5.4-12.7,5.6L437.2,42l-2.1,0l-3.3,0V11.8h10.4l0-11.7h-32.7v11.7l10,0l0,72.1h-10l0.1,11.7h32.7l0-11.8
				h-10.6V54.1h5.9c3,3.6,29.4,35.8,33.2,38.7c3.9,3,9.3,3.1,10,3.1c0,0,0.1,0,0.1,0h8.6l0-11.9l-0.8,0
				C488.7,83.9,486.8,83.9,486.1,83.9z"/>
			<polygon class="st0" points="664.8,83.7 624.4,83.7 624.4,11.8 635,11.8 635,-0.2 602.2,-0.2 602.2,11.7 612.3,11.7 612.3,83.7 
				602.3,83.7 602.4,95.6 676.8,95.6 676.8,73.2 664.9,73.1 			"/>
			<polygon class="st0" points="758.3,22.3 758.3,-0.3 672.9,-0.1 672.8,22.1 684.9,22.1 684.9,11.8 709.6,11.7 709.6,83.7 
				699.2,83.7 699.2,95.5 732,95.5 732,83.8 721.7,83.7 721.7,11.8 746.3,11.8 746.3,22.2 			"/>
			<polygon class="st0" points="506.5,11.8 516.6,11.8 516.7,83.7 506.4,83.7 506.4,95.6 581,95.6 581,73.4 569.2,73.4 569.2,83.7 
				528.7,83.8 528.7,53.7 565.2,53.7 565.2,41.7 528.6,41.7 528.6,11.8 569.3,11.8 569.3,22.3 581,22.2 581,-0.1 506.5,-0.1 			"/>
		</g>
	</g>
	<g>
		<path class="st0" d="M834.8-0.8c-13.5,0-25.8,5.2-34.8,14.6c-8.6,9.1-13.3,21.1-13.3,34v0.3c0,12.9,4.7,24.9,13.2,33.9
			c8.8,9.3,21.1,14.5,34.6,14.5c13.5,0,25.8-5.2,34.8-14.6c8.6-9.1,13.3-21.1,13.3-34v-0.3c0-12.9-4.7-24.9-13.2-33.9
			C860.6,4.4,848.3-0.8,834.8-0.8z M869.6,47.8v0.3c0,20.8-14.9,36.5-34.8,36.5c-9.7,0-18.6-3.8-25.1-10.8c-6.4-6.8-9.9-16.1-9.9-26
			v-0.3c0-20.8,14.9-36.5,34.8-36.5c9.7,0,18.6,3.8,25.1,10.8C866,28.7,869.6,37.9,869.6,47.8z"/>
		<path class="st0" d="M971.3,84.2c-3.2,0.2-8.8-0.1-10.2-1.6c-0.1-0.1-4.2-4.5-9.7-14.8c-2.5-4.7-4.4-7.9-5.6-9.5
			c12.8-2.2,21.4-14.1,21.1-29.4c-0.4-26.8-26.3-28.6-26.6-28.6h-53.7l0,12h10.7v71.9h-10.7l0,11.8h33.1l0-11.8l-10.4,0V59.5
			c2.8,0,12.9-0.1,22,0c2.1,0,5.8,7,9.4,13.7c3.2,6,6.9,12.7,10.8,17.9c3.4,4.4,8.2,5.1,12.8,5.1c0.1,0,0.3,0,0.6,0
			c1.8,0,6.5,0,6.5,0l0.8,0l0-12.1L971.3,84.2z M940.1,47.7h-30.4l-0.1-35.4c4.6,0,28.9,0.1,30.8,0.1c0.1,0,5.7,0.1,10,4.4
			c3.1,3.2,4.7,7.8,4.6,13.7C954.6,46.9,940.6,47.7,940.1,47.7z"/>
		<path class="st0" d="M1033.7,47.8v11.6h17.3v16.8c-6.8,5.4-16.3,8.6-25.3,8.6c-21,0-35.2-14.9-35.2-37v-0.3
			c0-20.5,14.8-36.5,33.7-36.5c13.5,0,21,4.8,27,10.1v11.6h11.7V15.2h0l0-0.1c0,0-0.8-1.1-2.5-2.7l0,0l-0.4-0.3
			c-1.7-1.5-4.1-3.5-7.5-5.5c-6-3.7-12.2-5.9-19.4-6.8c0,0,0,0-0.1,0c-0.3,0-0.6-0.1-0.9-0.1c-3.9-0.5-6.5-0.4-6.5-0.4l0.1,0
			c-0.4,0-0.8,0-1.1,0c-13.3,0-25.4,5.2-34.2,14.7c-8.4,9.1-13,21.1-13,33.9v0.3c0,13.3,4.6,25.5,12.8,34.2
			c8.7,9.2,20.8,14.1,35,14.1c18.8,0,31.6-9,37.6-14.3l0.4-0.3V47.8H1033.7z"/>
	</g>
	<circle class="st0" cx="766" cy="49.7" r="6.7"/>
</g>
</svg>
