<?xml version="1.0" encoding="UTF-8" standalone="no"?>
<svg width="642px" height="80px" viewBox="0 0 642 80" version="1.1" xmlns="http://www.w3.org/2000/svg" xmlns:xlink="http://www.w3.org/1999/xlink" xmlns:sketch="http://www.bohemiancoding.com/sketch/ns">
    <!-- Generator: Sketch 3.5.2 (25235) - http://www.bohemiancoding.com/sketch -->
    <title>Artboard 1</title>
    <desc>Created with Sketch.</desc>
    <defs></defs>
    <g id="Page-1" stroke="none" stroke-width="1" fill="none" fill-rule="evenodd" sketch:type="MSPage">
        <g id="Artboard-1" sketch:type="MSArtboardGroup">
            <g id="Group" sketch:type="MSLayerGroup" transform="translate(2.000000, 15.000000)">
                <g id="pf-logo" fill="#FEFEFE" sketch:type="MSShapeGroup">
                    <path d="M5.23013246,2.67158566 L5.25556228,11.7387775 L12.862014,11.7387775 C12.862014,11.7387775 16.6018284,11.5829248 16.652362,7.30985382 C16.7048518,3.03678283 13.4041909,2.66399115 12.9141778,2.66399115 C12.4241646,2.66399115 5.23013246,2.67158566 5.23013246,2.67158566 L5.23013246,2.67158566 Z M0.137973099,0.0640250726 L12.9259146,0.0640250726 C12.9259146,0.0640250726 19.1161208,0.420306936 19.2188181,6.91956173 C19.2827187,11.0615448 16.2148386,14.2842612 13.4309249,14.2842612 L5.17992485,14.2842612 L5.17992485,20.7042688 L7.80147895,20.7042688 L7.78452573,23.2745172 L0.133082749,23.2745172 L0.150035965,20.709552 L2.62520556,20.709552 L2.62520556,2.62899033 L0.133082749,2.62899033 L0.137973099,0.0640250726 Z" id="Fill-1"></path>
                    <path d="M28.7887458,2.63166492 L28.8138496,11.7252725 L36.4203013,11.7252725 C36.4203013,11.7252725 40.1584855,11.5694198 40.2090192,7.29568839 C40.2611829,3.0229476 36.9605221,2.64949553 36.4708349,2.64949553 C35.9821259,2.64949553 28.7887458,2.63166492 28.7887458,2.63166492 M39.0167516,16.5735455 C40.4245206,19.2104936 41.4218262,20.2704238 41.4218262,20.2704238 C41.963677,20.8301067 44.0551171,20.709585 44.0551171,20.709585 L44.0587034,23.292711 C44.0587034,23.292711 42.5296537,23.2986546 42.3428423,23.297664 C41.2297984,23.2880883 40.1330557,23.1239807 39.3603803,22.1089571 C37.1799358,19.2550701 35.371158,14.2766997 34.2783276,14.2704259 C31.6613379,14.2542463 28.736256,14.2704259 28.736256,14.2704259 L28.736256,20.7115662 L31.2658715,20.7201513 L31.258699,23.2431816 L23.5616127,23.2431816 L23.5684592,20.7145379 L26.1831668,20.7145379 L26.1831668,2.63166492 L23.5704154,2.63166492 L23.5769358,0.0501898455 L36.4842019,0.0501898455 C36.4842019,0.0501898455 42.674408,0.407462298 42.7751493,6.9060567 C42.8344855,10.6435492 40.6752326,13.6460246 37.4254314,14.0112218 C37.3882648,14.0145238 37.5098715,13.7447533 39.0167516,16.5735455" id="Fill-3"></path>
                    <path d="M56.039574,14.2008866 L64.6837582,14.2154152 L60.3408006,2.79920655 L56.039574,14.2008866 Z M48.3356412,20.7262269 L50.7472363,20.7202834 L58.8303342,0.0179626815 L62.0110184,0.0423972116 L69.9575126,20.7027829 L72.4176851,20.7093869 L72.4258357,23.2773239 L64.8823064,23.2717106 L64.890457,20.7199532 L67.2466281,20.7173116 L65.685302,16.7008032 L55.1355111,16.7143412 L53.5542977,20.7229249 L55.914707,20.7229249 L55.914707,23.2443043 L48.3310769,23.245625 L48.3356412,20.7262269 Z" id="Fill-5"></path>
                    <path d="M91.8386703,18.1411857 L94.3474203,18.1411857 L94.3474203,23.2483327 L76.5403487,23.2483327 L76.5403487,20.6926129 L79.0301893,20.6965753 L79.0204086,2.60610773 L76.5634963,2.61106067 L76.5530636,0.0401518764 L94.3493765,0.0401518764 L94.3493765,5.17965809 L91.8654042,5.18329025 L91.8504072,2.60181517 L81.5748019,2.60181517 L81.5748019,10.3482216 L90.4983882,10.3482216 L90.4944759,12.93531 L81.5836045,12.9283759 L81.5917551,20.7226608 L91.8386703,20.6965753 L91.8386703,18.1411857 Z" id="Fill-9"></path>
                    <path d="M99.9334399,0.0800395957 L107.524243,0.0800395957 L107.532719,2.59349423 L104.993323,2.59349423 L104.993323,10.4089117 L105.986716,10.4102325 L106.584643,10.4102325 L114.223371,1.34865398 C114.223371,1.34865398 115.280665,0.0288591611 117.180077,0.0288591611 L119.016893,0.0288591611 L119.014285,2.61528718 L117.993506,2.61528718 C117.993506,2.61528718 116.49771,2.37787601 115.265994,4.02852757 C114.03493,5.68083012 108.898757,11.7188006 108.898757,11.7188006 L115.694715,19.8597917 C115.694715,19.8597917 116.260691,20.7202834 118.413098,20.7202834 C118.586216,20.7202834 119.056342,20.7262269 119.056342,20.7262269 L119.049495,23.2839278 L117.141281,23.2839278 C117.141281,23.2839278 115.746552,23.306051 114.797498,22.5670715 C113.849422,21.8294129 106.68408,13.0045852 106.68408,13.0045852 L104.97963,13.0045852 L104.97963,20.7229249 L107.571516,20.7229249 L107.5663,23.245625 L99.9585437,23.245625 L99.9468069,20.7328308 L102.375029,20.7328308 L102.364922,2.59415462 L99.9334399,2.5958056 L99.9334399,0.0800395957 Z" id="Fill-11"></path>
                    <path d="M154.516407,0.0163447194 L146.908325,0.0163447194 L146.908325,2.57536645 L149.361977,2.56942291 L149.368497,20.6760701 L146.928864,20.6760701 L146.947121,23.2278275 L164.724851,23.2278275 L164.724851,18.0803965 L162.176652,18.0625659 L162.163285,20.6797022 L151.94343,20.6760701 L151.947016,2.58395155 L154.516407,2.58593273 L154.516407,0.0163447194 Z" id="Fill-13"></path>
                    <path d="M182.026912,2.59431972 L175.648265,2.58738559 L175.648265,20.6880892 L178.158971,20.6904006 L178.170708,23.2183839 L170.537522,23.2055062 L170.537522,20.6828061 L173.074962,20.6828061 L173.074962,2.57219656 L166.687838,2.59332913 L166.695988,5.1298975 L164.120078,5.12461436 L164.131814,0.0263826885 L184.576089,0.000297176717 L184.581306,5.1754646 L182.026912,5.15532262 L182.026912,2.59431972 Z" id="Fill-15"></path>
                    <path d="M138.866045,18.1287043 L141.373165,18.1287043 L141.373165,23.2361814 L123.567071,23.2361814 L123.567071,20.6804617 L126.057564,20.684424 L126.047783,2.5942867 L123.590871,2.59923964 L123.579134,0.0263496689 L141.374795,0.0263496689 L141.374795,5.16882765 L138.892779,5.17113903 L138.875826,2.58801297 L128.600546,2.58801297 L128.600546,10.3347496 L137.525437,10.3347496 L137.52022,12.9238192 L128.609023,12.9142435 L128.618804,20.7098491 L138.866045,20.684424 L138.866045,18.1287043 Z" id="Fill-17"></path>
                    <path d="M0,26.0968045 L18.4444474,26.0968045 L18.4444474,31.754719 L6.3903845,31.754719 L6.3903845,35.7154242 L17.2906506,35.7154242 L17.2906506,41.0741808 L6.3903845,41.0741808 L6.3903845,49.3947987 L0,49.3947987 L0,26.0968045 Z" id="Fill-19"></path>
                    <path d="M38.8671721,37.8125673 L38.8671721,37.7458676 C38.8671721,34.3851292 36.4624235,31.4552969 32.9377846,31.4552969 C29.4470522,31.4552969 27.1078344,34.3190899 27.1078344,37.6794982 L27.1078344,37.7458676 C27.1078344,41.1069363 29.5129089,44.0364383 33.0036414,44.0364383 C36.5279542,44.0364383 38.8671721,41.1742964 38.8671721,37.8125673 M20.552482,37.8125673 L20.552482,37.7458676 C20.552482,31.0567499 25.8888329,25.6309635 33.0036414,25.6309635 C40.1181238,25.6309635 45.388944,30.9887295 45.388944,37.6794982 L45.388944,37.7458676 C45.388944,44.4349853 40.0522671,49.859451 32.9377846,49.859451 C25.8229762,49.859451 20.552482,44.5030058 20.552482,37.8125673" id="Fill-21"></path>
                    <path d="M48.4200813,39.1772358 L48.4200813,26.0968375 L54.9099029,26.0968375 L54.9099029,39.0441667 C54.9099029,42.4068863 56.5889234,44.0023951 59.1586398,44.0023951 C61.7264,44.0023951 63.4054205,42.4716048 63.4054205,39.211246 L63.4054205,26.0968375 L69.8952421,26.0968375 L69.8952421,39.0098263 C69.8952421,46.5310388 65.6465053,49.8270587 59.092783,49.8270587 C52.5367787,49.8270587 48.4200813,46.4666505 48.4200813,39.1772358" id="Fill-23"></path>
                    <path d="M73.6839925,26.0968045 L79.6450042,26.0968045 L89.132611,38.4114774 L89.132611,26.0968045 L95.4551826,26.0968045 L95.4551826,49.3947987 L89.8567089,49.3947987 L80.0088463,36.6142187 L80.0088463,49.3947987 L73.6839925,49.3947987 L73.6839925,26.0968045 Z" id="Fill-25"></path>
                    <path d="M108.533057,43.6691279 C112.352421,43.6691279 114.888231,41.5423332 114.888231,37.780076 L114.888231,37.7137065 C114.888231,33.9854595 112.352421,31.8226734 108.533057,31.8226734 L105.92976,31.8226734 L105.92976,43.6691279 L108.533057,43.6691279 Z M99.5410056,26.0970687 L108.431989,26.0970687 C116.668644,26.0970687 121.443909,30.8901989 121.443909,37.6113456 L121.443909,37.6796963 C121.443909,44.4031544 116.602788,49.3950629 108.300928,49.3950629 L99.5410056,49.3950629 L99.5410056,26.0970687 Z" id="Fill-27"></path>
                    <path d="M136.660008,40.2081749 L134.093877,33.5857568 L131.490255,40.2081749 L136.660008,40.2081749 Z M131.062512,25.9308148 L137.220442,25.9308148 L147.037984,49.3948978 L140.185951,49.3948978 L138.505626,45.2347539 L129.612686,45.2347539 L127.965942,49.3948978 L121.246926,49.3948978 L131.062512,25.9308148 Z" id="Fill-29"></path>
                    <path d="M151.550702,31.7546199 L144.634768,31.7546199 L144.634768,26.0967054 L164.855717,26.0967054 L164.855717,31.7546199 L157.939457,31.7546199 L157.939457,49.3946996 L151.550702,49.3946996 L151.550702,31.7546199 Z" id="Fill-31"></path>
                    <path d="M167.459633,26.0967385 L173.883924,26.0967385 L173.883924,49.3947327 L167.459633,49.3947327 L167.459633,26.0967385 Z" id="Fill-33"></path>
                    <path d="M195.292706,37.8125673 L195.292706,37.7458676 C195.292706,34.3851292 192.887958,31.4552969 189.363645,31.4552969 C185.871282,31.4552969 183.533695,34.3190899 183.533695,37.6794982 L183.533695,37.7458676 C183.533695,41.1069363 185.939095,44.0364383 189.429502,44.0364383 C192.954141,44.0364383 195.292706,41.1742964 195.292706,37.8125673 M176.979973,37.8125673 L176.979973,37.7458676 C176.979973,31.0567499 182.313063,25.6309635 189.429502,25.6309635 C196.543984,25.6309635 201.813174,30.9887295 201.813174,37.6794982 L201.813174,37.7458676 C201.813174,44.4349853 196.478454,49.859451 189.363645,49.859451 C182.249163,49.859451 176.979973,44.5030058 176.979973,37.8125673" id="Fill-35"></path>
                    <path d="M205.140699,26.0968045 L211.103667,26.0968045 L220.588666,38.4114774 L220.588666,26.0968045 L226.912215,26.0968045 L226.912215,49.3947987 L221.312764,49.3947987 L211.466857,36.6142187 L211.466857,49.3947987 L205.140699,49.3947987 L205.140699,26.0968045 Z" id="Fill-36"></path>
                </g>
                <path d="M248.183018,49.9824561 L251.003649,49.9824561 L251.003649,26.477193 L248.183018,26.477193 L248.183018,49.9824561 Z M270.580175,38.6663509 C270.580175,34.5697193 267.692386,32.857193 264.737439,32.857193 C262.319754,32.857193 260.305018,34.1667719 259.129754,36.2486667 L259.129754,33.3272982 L256.510596,33.3272982 L256.510596,49.9824561 L259.129754,49.9824561 L259.129754,40.7482456 C259.129754,37.323193 261.413123,35.2077193 263.965123,35.2077193 C266.315649,35.2077193 267.961018,36.5172982 267.961018,39.1364561 L267.961018,49.9824561 L270.580175,49.9824561 L270.580175,38.6663509 Z M288.679228,44.4419298 C287.470386,46.6917193 285.892175,48.1020351 283.105123,48.1020351 C279.68007,48.1020351 277.161649,45.617193 277.161649,41.6548772 C277.161649,37.6925614 279.780807,35.2077193 283.105123,35.2077193 C285.287754,35.2077193 287.235333,36.0807719 288.477754,38.7335088 L290.458912,37.4239298 C289.283649,34.5697193 286.664491,32.857193 283.071544,32.857193 C278.471228,32.857193 274.542491,36.5172982 274.542491,41.6548772 C274.542491,46.7924561 278.269754,50.4525614 283.071544,50.4525614 C286.429439,50.4525614 289.015018,48.7064561 290.559649,45.6507719 L288.679228,44.4419298 Z M294.387649,44.307614 C294.387649,48.7400351 297.275439,50.4525614 300.297544,50.4525614 C302.748807,50.4525614 304.729965,49.1765614 305.83807,47.0610877 L305.83807,49.9824561 L308.457228,49.9824561 L308.457228,33.3272982 L305.83807,33.3272982 L305.83807,42.6622456 C305.83807,45.9865614 303.554702,48.1020351 300.935544,48.1020351 C298.652175,48.1020351 297.006807,46.7924561 297.006807,44.1732982 L297.006807,33.3272982 L294.387649,33.3272982 L294.387649,44.307614 Z M313.561228,49.9824561 L316.180386,49.9824561 L316.180386,46.9939298 C317.154175,48.9079298 319.336807,50.4525614 321.989544,50.4525614 C326.556281,50.4525614 329.981333,46.7924561 329.981333,41.6548772 C329.981333,36.5172982 326.657018,32.857193 322.291754,32.857193 C319.672596,32.857193 317.422807,34.2675088 316.180386,36.3494035 L316.180386,26.477193 L313.561228,26.477193 L313.561228,49.9824561 Z M321.620175,48.0348772 C318.463754,48.0348772 315.978912,45.5164561 315.978912,41.6548772 C315.978912,37.7932982 318.463754,35.2748772 321.620175,35.2748772 C324.776596,35.2748772 327.295018,37.7932982 327.295018,41.6548772 C327.295018,45.5164561 324.776596,48.0348772 321.620175,48.0348772 L321.620175,48.0348772 Z M348.046807,49.9824561 C347.240912,48.6392982 347.039439,47.7326667 347.039439,45.8186667 L347.039439,38.2969825 C347.039439,34.9055088 344.856807,32.857193 340.491544,32.857193 C336.529228,32.857193 334.077965,35.0734035 334.077965,37.5918246 C334.077965,38.0283509 334.145123,38.4648772 334.346596,38.9349825 L336.629965,38.1626667 C336.562807,37.8940351 336.562807,37.8268772 336.562807,37.6589825 C336.562807,36.2822456 337.872386,35.0734035 340.491544,35.0734035 C342.942807,35.0734035 344.420281,36.047193 344.420281,38.2969825 L344.420281,39.0357193 L338.879754,39.9423509 C335.689754,40.4460351 333.137754,42.1921404 333.137754,45.3821404 C333.137754,48.3035088 335.353965,50.4525614 338.745439,50.4525614 C341.26386,50.4525614 343.379333,49.1094035 344.420281,46.6917193 C344.420281,48.5721404 344.923965,49.3780351 345.427649,49.9824561 L348.046807,49.9824561 Z M339.047649,48.1020351 C337.066491,48.1020351 335.82407,46.9939298 335.82407,45.2478246 C335.82407,43.5688772 337.032912,42.393614 339.34986,41.9906667 L344.420281,41.117614 L344.420281,41.6212982 C344.420281,44.979193 342.573439,48.1020351 339.047649,48.1020351 L339.047649,48.1020351 Z M350.598807,35.409193 L353.38586,35.409193 L353.38586,45.9865614 C353.38586,49.3780351 355.400596,50.4525614 357.549649,50.4525614 C358.557018,50.4525614 359.195018,50.3518246 359.76586,50.1503509 L359.530807,47.9677193 C359.195018,48.0684561 358.657754,48.169193 358.288386,48.169193 C356.340807,48.169193 356.005018,47.2625614 356.005018,45.4828772 L356.005018,35.409193 L359.833018,35.409193 L359.833018,33.3272982 L356.005018,33.3272982 L356.005018,28.8277193 L353.38586,28.8277193 L353.38586,33.3272982 L350.598807,33.3272982 L350.598807,35.409193 Z M379.84607,41.6548772 C379.84607,35.9800351 375.312912,32.857193 371.149123,32.857193 C366.985333,32.857193 362.452175,35.9800351 362.452175,41.6548772 C362.452175,47.3297193 366.985333,50.4525614 371.149123,50.4525614 C375.312912,50.4525614 379.84607,47.3297193 379.84607,41.6548772 L379.84607,41.6548772 Z M371.149123,48.1020351 C367.757649,48.1020351 365.138491,45.3821404 365.138491,41.6548772 C365.138491,37.927614 367.757649,35.2077193 371.149123,35.2077193 C374.540596,35.2077193 377.159754,37.927614 377.159754,41.6548772 C377.159754,45.3821404 374.540596,48.1020351 371.149123,48.1020351 L371.149123,48.1020351 Z M392.404596,33.0250877 C392.035228,32.9243509 391.531544,32.857193 391.262912,32.857193 C388.912386,32.857193 387.334175,34.3682456 386.427544,36.3494035 L386.427544,33.3272982 L383.808386,33.3272982 L383.808386,49.9824561 L386.427544,49.9824561 L386.427544,40.8825614 C386.427544,37.4575088 388.375123,35.2748772 390.658491,35.2748772 C391.162175,35.2748772 391.565123,35.3420351 391.96807,35.4763509 L392.404596,33.0250877 Z M402.981965,35.409193 L405.601123,35.409193 L405.601123,49.9824561 L408.220281,49.9824561 L408.220281,35.409193 L412.048281,35.409193 L412.048281,33.3272982 L408.220281,33.3272982 L408.220281,30.0365614 C408.220281,27.9882456 409.227649,27.081614 410.839439,27.081614 C411.275965,27.081614 411.645333,27.1487719 411.947544,27.2495088 L412.350491,25.0332982 C411.880386,24.8654035 411.343123,24.7982456 410.738702,24.7982456 C407.414386,24.7982456 405.601123,26.8801404 405.601123,30.0029825 L405.601123,33.3272982 L402.981965,33.3272982 L402.981965,35.409193 Z M431.624807,41.6548772 C431.624807,35.9800351 427.091649,32.857193 422.92786,32.857193 C418.76407,32.857193 414.230912,35.9800351 414.230912,41.6548772 C414.230912,47.3297193 418.76407,50.4525614 422.92786,50.4525614 C427.091649,50.4525614 431.624807,47.3297193 431.624807,41.6548772 L431.624807,41.6548772 Z M422.92786,48.1020351 C419.536386,48.1020351 416.917228,45.3821404 416.917228,41.6548772 C416.917228,37.927614 419.536386,35.2077193 422.92786,35.2077193 C426.319333,35.2077193 428.938491,37.927614 428.938491,41.6548772 C428.938491,45.3821404 426.319333,48.1020351 422.92786,48.1020351 L422.92786,48.1020351 Z M444.183333,33.0250877 C443.813965,32.9243509 443.310281,32.857193 443.041649,32.857193 C440.691123,32.857193 439.112912,34.3682456 438.206281,36.3494035 L438.206281,33.3272982 L435.587123,33.3272982 L435.587123,49.9824561 L438.206281,49.9824561 L438.206281,40.8825614 C438.206281,37.4575088 440.15386,35.2748772 442.437228,35.2748772 C442.940912,35.2748772 443.34386,35.3420351 443.746807,35.4763509 L444.183333,33.0250877 Z M456.439649,49.9824561 L460.87207,49.9824561 L460.87207,40.479614 L472.05386,40.479614 L472.05386,36.5172982 L460.87207,36.5172982 L460.87207,30.4395088 L473.061228,30.4395088 L473.061228,26.477193 L456.439649,26.477193 L456.439649,49.9824561 Z M487.164386,33.0586667 C486.72786,32.9243509 486.257754,32.857193 485.720491,32.857193 C483.571439,32.857193 482.026807,34.0660351 481.086596,35.9800351 L481.086596,33.3272982 L476.855649,33.3272982 L476.855649,49.9824561 L481.086596,49.9824561 L481.086596,41.755614 C481.086596,38.9349825 482.597649,36.8195088 485.11607,36.8195088 C485.653333,36.8195088 486.123439,36.9202456 486.492807,37.0545614 L487.164386,33.0586667 Z M505.699965,42.6622456 L505.699965,41.1847719 C505.699965,36.3158246 502.34207,32.857193 497.57386,32.857193 C492.738491,32.857193 488.809754,36.3829825 488.809754,41.6548772 C488.809754,46.9267719 492.738491,50.4525614 497.372386,50.4525614 C501.133228,50.4525614 503.61807,48.8407719 505.196281,45.583614 L502.03986,43.7703509 C501.099649,45.6507719 499.756491,46.8260351 497.439544,46.8260351 C494.954702,46.8260351 493.141439,45.2142456 492.872807,42.6622456 L505.699965,42.6622456 Z M497.439544,36.0807719 C499.823649,36.0807719 501.40186,37.4239298 501.804807,39.5729825 L492.872807,39.5729825 C493.477228,37.6254035 495.189754,36.0807719 497.439544,36.0807719 L497.439544,36.0807719 Z M525.00786,42.6622456 L525.00786,41.1847719 C525.00786,36.3158246 521.649965,32.857193 516.881754,32.857193 C512.046386,32.857193 508.117649,36.3829825 508.117649,41.6548772 C508.117649,46.9267719 512.046386,50.4525614 516.680281,50.4525614 C520.441123,50.4525614 522.925965,48.8407719 524.504175,45.583614 L521.347754,43.7703509 C520.407544,45.6507719 519.064386,46.8260351 516.747439,46.8260351 C514.262596,46.8260351 512.449333,45.2142456 512.180702,42.6622456 L525.00786,42.6622456 Z M516.747439,36.0807719 C519.131544,36.0807719 520.709754,37.4239298 521.112702,39.5729825 L512.180702,39.5729825 C512.785123,37.6254035 514.497649,36.0807719 516.747439,36.0807719 L516.747439,36.0807719 Z M537.969333,49.9824561 L547.807965,49.9824561 C552.341123,49.9824561 556.135544,47.3632982 556.135544,42.9308772 C556.135544,39.875193 554.288702,38.1626667 551.904596,37.2224561 C553.583544,36.3829825 555.161754,34.6704561 555.161754,32.219193 C555.161754,28.6262456 552.475439,26.477193 547.64007,26.477193 L537.969333,26.477193 L537.969333,49.9824561 Z M542.401754,39.5058246 L547.539333,39.5058246 C550.393544,39.5058246 551.703123,40.6810877 551.703123,42.7629825 C551.703123,44.8448772 550.393544,46.0201404 547.539333,46.0201404 L542.401754,46.0201404 L542.401754,39.5058246 Z M542.401754,30.3723509 L547.304281,30.3723509 C549.789123,30.3723509 550.863649,31.2118246 550.863649,32.9915088 C550.863649,34.771193 549.789123,35.6106667 547.304281,35.6106667 L542.401754,35.6106667 L542.401754,30.3723509 Z M575.40986,49.9824561 C574.603965,48.807193 574.301754,47.7662456 574.301754,45.8522456 L574.301754,38.9014035 C574.301754,34.8383509 571.682596,32.857193 567.015123,32.857193 C562.549123,32.857193 559.997123,35.375614 559.997123,37.961193 C559.997123,38.4312982 560.09786,38.9349825 560.299333,39.3715088 L564.093754,38.0955088 C564.026596,37.8940351 564.026596,37.8268772 564.026596,37.6925614 C564.026596,36.651614 565.067544,35.8121404 567.015123,35.8121404 C569.063439,35.8121404 570.070807,36.7187719 570.070807,38.3305614 L570.070807,38.9685614 L565.067544,39.7408772 C561.911123,40.2109825 559.12407,41.8563509 559.12407,45.2478246 C559.12407,48.4042456 561.441018,50.4525614 564.731754,50.4525614 C567.11586,50.4525614 569.130596,49.411614 570.30586,47.3297193 C570.30586,48.773614 570.843123,49.6466667 571.111754,49.9824561 L575.40986,49.9824561 Z M565.739123,47.0275088 C564.261649,47.0275088 563.254281,46.3559298 563.254281,45.0127719 C563.254281,43.669614 564.22807,42.8637193 566.041333,42.5615088 L570.070807,41.8899298 L570.070807,42.1921404 C570.070807,45.4157193 568.190386,47.0275088 565.739123,47.0275088 L565.739123,47.0275088 Z M582.763649,37.4239298 C582.763649,36.3829825 583.905333,35.9464561 585.28207,35.9464561 C586.994596,35.9464561 588.337754,37.0545614 589.042912,38.8678246 L592.098596,37.0545614 C590.755439,34.2339298 588.841439,32.857193 585.214912,32.857193 C581.957754,32.857193 579.002807,34.5697193 579.002807,37.6925614 C579.002807,40.7146667 581.554807,42.2592982 584.811965,42.8972982 C587.263228,43.3674035 588.371333,43.9382456 588.371333,45.0463509 C588.371333,46.255193 587.061754,46.893193 585.752175,46.893193 C583.603123,46.893193 582.159228,45.3821404 581.45407,43.3002456 L578.062596,45.4492982 C579.170702,48.0348772 581.521228,50.4525614 585.685018,50.4525614 C589.815228,50.4525614 592.266491,48.0348772 592.266491,44.9120351 C592.266491,42.1249825 590.587544,40.5803509 586.692386,39.7744561 C584.073228,39.237193 582.763649,38.4984561 582.763649,37.4239298 L582.763649,37.4239298 Z M595.590807,49.9824561 L599.821754,49.9824561 L599.821754,33.3272982 L595.590807,33.3272982 L595.590807,49.9824561 Z M595.389333,30.909614 L600.023228,30.909614 L600.023228,26.477193 L595.389333,26.477193 L595.389333,30.909614 Z M616.208281,43.4345614 C615.26807,45.3821404 614.025649,46.4902456 611.809439,46.4902456 C609.257439,46.4902456 607.377018,44.6434035 607.377018,41.6548772 C607.377018,38.6999298 609.324596,36.8195088 611.809439,36.8195088 C613.555544,36.8195088 615.033018,37.5582456 616.006807,39.6737193 L619.465439,37.3903509 C618.290175,34.5361404 615.536702,32.857193 611.843018,32.857193 C607.108386,32.857193 603.078912,36.3494035 603.078912,41.6548772 C603.078912,46.9603509 606.906912,50.4525614 611.843018,50.4525614 C615.335228,50.4525614 618.055123,48.807193 619.633333,45.6507719 L616.208281,43.4345614 Z M626.75207,37.4239298 C626.75207,36.3829825 627.893754,35.9464561 629.270491,35.9464561 C630.983018,35.9464561 632.326175,37.0545614 633.031333,38.8678246 L636.087018,37.0545614 C634.74386,34.2339298 632.82986,32.857193 629.203333,32.857193 C625.946175,32.857193 622.991228,34.5697193 622.991228,37.6925614 C622.991228,40.7146667 625.543228,42.2592982 628.800386,42.8972982 C631.251649,43.3674035 632.359754,43.9382456 632.359754,45.0463509 C632.359754,46.255193 631.050175,46.893193 629.740596,46.893193 C627.591544,46.893193 626.147649,45.3821404 625.442491,43.3002456 L622.051018,45.4492982 C623.159123,48.0348772 625.509649,50.4525614 629.673439,50.4525614 C633.803649,50.4525614 636.254912,48.0348772 636.254912,44.9120351 C636.254912,42.1249825 634.575965,40.5803509 630.680807,39.7744561 C628.061649,39.237193 626.75207,38.4984561 626.75207,37.4239298 L626.75207,37.4239298 Z" id="Incubator-for-Free-B" fill="#FFFFFF" sketch:type="MSShapeGroup"></path>
            </g>
        </g>
    </g>
</svg>